<svg xmlns="http://www.w3.org/2000/svg" viewBox="0 0 440.57 101.13"><defs><style>.cls-1{fill:#06f;stroke:#06f;stroke-miterlimit:10;stroke-width:2px;}</style></defs><g id="Layer_2" data-name="Layer 2"><g id="Layer_1-2" data-name="Layer 1"><path class="cls-1" d="M68.31,7.13A43.18,43.18,0,0,0,45.81,1a43.23,43.23,0,0,0-22.5,6.13A44.79,44.79,0,0,0,7,23.81,45.69,45.69,0,0,0,1,46.75,45.66,45.66,0,0,0,7,69.69,44.89,44.89,0,0,0,23.31,86.38,44,44,0,0,0,62.88,89l5.87,4.25a68.38,68.38,0,0,0,13,6.63l1.5-3.25-2.75-.88a37.27,37.27,0,0,1-7.94-4.25,58,58,0,0,1-9.93-8.25q-2-2-8-8A26.66,26.66,0,0,0,66.75,76.5a31.58,31.58,0,0,0,8.69-2.31,23.78,23.78,0,0,0,6.25-3.88,22.59,22.59,0,0,0,4.25-5.18,27.45,27.45,0,0,0,2.62-5.5,39.76,39.76,0,0,0,1.32-5.44c.33-2,.54-3.44.62-4.44s.13-2,.13-3a45.69,45.69,0,0,0-6-22.94A44.74,44.74,0,0,0,68.31,7.13ZM80.63,60a28.44,28.44,0,0,1-3.82,9.06,16.92,16.92,0,0,1-5,4.94,10.24,10.24,0,0,1-5.31,1.63,30.18,30.18,0,0,1-10.62-2.44q-5.62-2.31-8-4.69l-6.25-6.25-.38.38L38.88,65,59,85.13a32,32,0,0,1-31.37-2.75A39.61,39.61,0,0,1,14.38,67.25,44.26,44.26,0,0,1,9.5,46.75a44.62,44.62,0,0,1,4.88-20.56A40.38,40.38,0,0,1,27.63,10.88,31.32,31.32,0,0,1,45.75,5.13q13.76,0,24,10.62a43.36,43.36,0,0,1,12,25.88,34.37,34.37,0,0,1,.38,5.12A52.7,52.7,0,0,1,80.63,60Z"/><path class="cls-1" d="M159.24,81.68a5.76,5.76,0,0,1-1.1,4.18,4.23,4.23,0,0,1-2.75,1.32,3.23,3.23,0,0,1-2.75-.88q-1.21-1.42-1.1-5V28.66H139.22v4.73h3.41a3.65,3.65,0,0,1,2.75,1.15,3.94,3.94,0,0,1,1.1,2.81V69.8a27.87,27.87,0,0,1-2.75,6.11,31.14,31.14,0,0,1-4.13,5.38,18.47,18.47,0,0,1-5.44,4,14.66,14.66,0,0,1-6.49,1.49,17.13,17.13,0,0,1-8.25-1.65,15.75,15.75,0,0,1-5.17-4.73A17.62,17.62,0,0,1,111,69.47V37l-.11-1.43a8.13,8.13,0,0,0-1.21-3.3,7.49,7.49,0,0,0-3-2.86,12.92,12.92,0,0,0-9.57-.55v2.75l.55-.22a3.47,3.47,0,0,1,1.59-.16,5.48,5.48,0,0,1,2.26.6A5.91,5.91,0,0,1,105,37.68l.11,33a18.53,18.53,0,0,0,3,10.23Q114.36,91,127.67,91a19.93,19.93,0,0,0,10.45-2.91,30,30,0,0,0,8.36-7.54l.11,2.53a8.91,8.91,0,0,0,2.09,5.61,4.59,4.59,0,0,0,1.1,1,7.21,7.21,0,0,0,4.51,1.43A2.17,2.17,0,0,0,155,91a6.71,6.71,0,0,0,2.86-.61,7,7,0,0,0,2.31-1.7q2.19-2.41,2.09-7v-1.1h-3Z"/><path class="cls-1" d="M177.55,24.92a4,4,0,0,0,2.92-1.21,4.25,4.25,0,0,0,0-5.94,4,4,0,0,0-2.92-1.21,4.15,4.15,0,0,0-3,1.21,4.13,4.13,0,0,0,0,5.94A4.15,4.15,0,0,0,177.55,24.92Z"/><path class="cls-1" d="M181.4,86a2,2,0,0,1-.6-1.49V29.1l-2,2.31a7.93,7.93,0,0,1-4.4,2.53,4.26,4.26,0,0,1-.61.16l-.49.11a1.55,1.55,0,0,1-.39.06h-.38l-1.32.22.88,2.86h.77c1.9,0,2.86,1.28,2.86,3.85V84.54a2.05,2.05,0,0,1-.61,1.49,2,2,0,0,1-1.48.6h-6.49v4.51h22.22V86.63h-6.6A1.9,1.9,0,0,1,181.4,86Z"/><path class="cls-1" d="M241.63,28.33H195.76V44.94h3.63V37.68a5.26,5.26,0,0,1,2.42-4.62h30.58L197.63,87,195,91.14h31.68q6.27,0,8.8-1.87c2.34-1.69,3.63-3.26,3.85-4.73v6.6h1.87V68.59h-1.87V69c0,2.13-.08,3.92-.22,5.39q-.12,1.55-.33,3-1.44,9.14-8.25,8.91h-26.4l34.76-53.79Z"/><path class="cls-1" d="M259.67,28.22a3,3,0,0,0,1.26-.72,5.19,5.19,0,0,0,1.16-1.37,6.86,6.86,0,0,0,.55-3.41h-5.06l.11.55a7.29,7.29,0,0,1-.17,1.27A6,6,0,0,1,257,26a3.93,3.93,0,0,1-1.54,1.54,6.3,6.3,0,0,1-1.71.71,16.82,16.82,0,0,1-2.47.28,15.14,15.14,0,0,1-2,.22h-1v3.52l7.48.11V83a9.45,9.45,0,0,0,2.2,5.61,3.84,3.84,0,0,0,1.1,1.1,7.21,7.21,0,0,0,4.51,1.43,2.17,2.17,0,0,0,.66-.11,6.84,6.84,0,0,0,5.06-2.31q2.31-2.41,2.2-7.26v-1.1h-3v1.21a5.76,5.76,0,0,1-1.1,4.18,3.67,3.67,0,0,1-2.75,1.32,3.23,3.23,0,0,1-2.75-.88q-1.22-1.43-1.1-5.06V32.4H274V28.33H259.23Z"/><path class="cls-1" d="M289.42,24.92a4,4,0,0,0,2.92-1.21,4.25,4.25,0,0,0,0-5.94,4,4,0,0,0-2.92-1.21,4.13,4.13,0,0,0-3,1.21,4.13,4.13,0,0,0,0,5.94A4.13,4.13,0,0,0,289.42,24.92Z"/><path class="cls-1" d="M293.27,86a2,2,0,0,1-.6-1.49V29.1l-2,2.31a7.93,7.93,0,0,1-4.4,2.53,4.63,4.63,0,0,1-.61.16l-.49.11a1.55,1.55,0,0,1-.39.06h-.38l-1.32.22.88,2.86h.77c1.9,0,2.86,1.28,2.86,3.85V84.54A2.05,2.05,0,0,1,287,86a2,2,0,0,1-1.48.6H279v4.51h22.22V86.63h-6.6A1.9,1.9,0,0,1,293.27,86Z"/><path class="cls-1" d="M336.77,29.1a30.18,30.18,0,0,0-15.51,4.18,31.27,31.27,0,0,0-15.51,27.06,30.38,30.38,0,0,0,9.08,22.16,30.8,30.8,0,0,0,43.89,0,30.3,30.3,0,0,0,9.07-22.1,30.31,30.31,0,0,0-9.07-22.11A29.71,29.71,0,0,0,336.77,29.1ZM355,80q-7.36,8.14-17.71,8.14T319.67,80a28.34,28.34,0,0,1-7.32-19.63,28.34,28.34,0,0,1,7.32-19.64q7.32-8.15,17.65-8.14T355,40.76A28.2,28.2,0,0,1,362.4,60.4,28.2,28.2,0,0,1,355,80Z"/><path class="cls-1" d="M436.33,81.35l-.22,1.21a5.84,5.84,0,0,1-4,4.51,5.24,5.24,0,0,1-4.51-.22,3.14,3.14,0,0,1-1.43-2.64,17.34,17.34,0,0,1-.11-1.87l.11-29.92A31,31,0,0,0,423.9,40.1q-.33-.89-.66-1.65-5.5-11.33-17.05-10a19.41,19.41,0,0,0-7.37,2.69,35.34,35.34,0,0,0-6.88,5.23,56.37,56.37,0,0,0-5.66,6.49L386.17,29l-2,2.42c-.08.07-.24.26-.5.55a7.69,7.69,0,0,1-1.54,1.16,9.25,9.25,0,0,1-2.36,1l-1.87.33-1.32.11.88,3.08h.88q2.75,0,2.75,4l.11,42.46a2.5,2.5,0,0,1-.17.88,2.14,2.14,0,0,1-.44.72,1.89,1.89,0,0,1-.66.43,1.91,1.91,0,0,1-.82.17h-6.49V91h22.22V86.3h-6.6a1.77,1.77,0,0,1-1.32-.55,2.24,2.24,0,0,1-.66-1.65V51.32a44.77,44.77,0,0,1,9.4-12.15q5.88-5.45,11.06-6a9,9,0,0,1,6.43,1.16c1.72,1.13,3.28,3.17,4.68,6.1A23.94,23.94,0,0,1,420,51V83.33a8.3,8.3,0,0,0,2.87,6.27,4.81,4.81,0,0,1,.44.33q2,1.54,6.16,1.54a14.57,14.57,0,0,0,2.42-.22,9.23,9.23,0,0,0,3.13-1.54A10.12,10.12,0,0,0,437.59,87a13.5,13.5,0,0,0,1.6-3.63l.22-1.1Z"/></g></g></svg>