<svg id="visual" viewBox="0 0 960 540" width="960" height="540" xmlns="http://www.w3.org/2000/svg" xmlns:xlink="http://www.w3.org/1999/xlink" version="1.1"><path d="M0 66L14.5 66.8C29 67.7 58 69.3 87.2 67.5C116.3 65.7 145.7 60.3 174.8 62.2C204 64 233 73 262 72.2C291 71.3 320 60.7 349 52.5C378 44.3 407 38.7 436.2 43.2C465.3 47.7 494.7 62.3 523.8 66C553 69.7 582 62.3 611 56.8C640 51.3 669 47.7 698 49.5C727 51.3 756 58.7 785.2 65.8C814.3 73 843.7 80 872.8 82.7C902 85.3 931 83.7 945.5 82.8L960 82L960 0L945.5 0C931 0 902 0 872.8 0C843.7 0 814.3 0 785.2 0C756 0 727 0 698 0C669 0 640 0 611 0C582 0 553 0 523.8 0C494.7 0 465.3 0 436.2 0C407 0 378 0 349 0C320 0 291 0 262 0C233 0 204 0 174.8 0C145.7 0 116.3 0 87.2 0C58 0 29 0 14.5 0L0 0Z" fill="#6198ff"></path><path d="M0 195L14.5 195C29 195 58 195 87.2 194.2C116.3 193.3 145.7 191.7 174.8 195.3C204 199 233 208 262 207.2C291 206.3 320 195.7 349 190.3C378 185 407 185 436.2 180.5C465.3 176 494.7 167 523.8 171.5C553 176 582 194 611 190.3C640 186.7 669 161.3 698 147.8C727 134.3 756 132.7 785.2 135.3C814.3 138 843.7 145 872.8 146.7C902 148.3 931 144.7 945.5 142.8L960 141L960 80L945.5 80.8C931 81.7 902 83.3 872.8 80.7C843.7 78 814.3 71 785.2 63.8C756 56.7 727 49.3 698 47.5C669 45.7 640 49.3 611 54.8C582 60.3 553 67.7 523.8 64C494.7 60.3 465.3 45.7 436.2 41.2C407 36.7 378 42.3 349 50.5C320 58.7 291 69.3 262 70.2C233 71 204 62 174.8 60.2C145.7 58.3 116.3 63.7 87.2 65.5C58 67.3 29 65.7 14.5 64.8L0 64Z" fill="#3c80ff"></path><path d="M0 239L14.5 246.2C29 253.3 58 267.7 87.2 273.8C116.3 280 145.7 278 174.8 277C204 276 233 276 262 271.5C291 267 320 258 349 253.5C378 249 407 249 436.2 244.5C465.3 240 494.7 231 523.8 232C553 233 582 244 611 241.3C640 238.7 669 222.3 698 216C727 209.7 756 213.3 785.2 213.3C814.3 213.3 843.7 209.7 872.8 206C902 202.3 931 198.7 945.5 196.8L960 195L960 139L945.5 140.8C931 142.7 902 146.3 872.8 144.7C843.7 143 814.3 136 785.2 133.3C756 130.7 727 132.3 698 145.8C669 159.3 640 184.7 611 188.3C582 192 553 174 523.8 169.5C494.7 165 465.3 174 436.2 178.5C407 183 378 183 349 188.3C320 193.7 291 204.3 262 205.2C233 206 204 197 174.8 193.3C145.7 189.7 116.3 191.3 87.2 192.2C58 193 29 193 14.5 193L0 193Z" fill="#0066ff"></path><path d="M0 352L14.5 356.5C29 361 58 370 87.2 373.7C116.3 377.3 145.7 375.7 174.8 382C204 388.3 233 402.7 262 409.8C291 417 320 417 349 411.5C378 406 407 395 436.2 400.3C465.3 405.7 494.7 427.3 523.8 422.8C553 418.3 582 387.7 611 384.2C640 380.7 669 404.3 698 395.3C727 386.3 756 344.7 785.2 345.5C814.3 346.3 843.7 389.7 872.8 406C902 422.3 931 411.7 945.5 406.3L960 401L960 193L945.5 194.8C931 196.7 902 200.3 872.8 204C843.7 207.7 814.3 211.3 785.2 211.3C756 211.3 727 207.7 698 214C669 220.3 640 236.7 611 239.3C582 242 553 231 523.8 230C494.7 229 465.3 238 436.2 242.5C407 247 378 247 349 251.5C320 256 291 265 262 269.5C233 274 204 274 174.8 275C145.7 276 116.3 278 87.2 271.8C58 265.7 29 251.3 14.5 244.2L0 237Z" fill="#0059dd"></path><path d="M0 541L14.5 541C29 541 58 541 87.2 541C116.3 541 145.7 541 174.8 541C204 541 233 541 262 541C291 541 320 541 349 541C378 541 407 541 436.2 541C465.3 541 494.7 541 523.8 541C553 541 582 541 611 541C640 541 669 541 698 541C727 541 756 541 785.2 541C814.3 541 843.7 541 872.8 541C902 541 931 541 945.5 541L960 541L960 399L945.5 404.3C931 409.7 902 420.3 872.8 404C843.7 387.7 814.3 344.3 785.2 343.5C756 342.7 727 384.3 698 393.3C669 402.3 640 378.7 611 382.2C582 385.7 553 416.3 523.8 420.8C494.7 425.3 465.3 403.7 436.2 398.3C407 393 378 404 349 409.5C320 415 291 415 262 407.8C233 400.7 204 386.3 174.8 380C145.7 373.7 116.3 375.3 87.2 371.7C58 368 29 359 14.5 354.5L0 350Z" fill="#004cbb"></path></svg>